<svg xmlns="http://www.w3.org/2000/svg" width="1200" height="675" viewBox="0 0 1200 675" fill="none" role="img" aria-label="Canvas and artifacts">
  <defs>
    <linearGradient id="bg" x1="130" y1="70" x2="1060" y2="620" gradientUnits="userSpaceOnUse">
      <stop stop-color="#F8FAFF"/>
      <stop offset="1" stop-color="#EEF2F9"/>
    </linearGradient>
    <pattern id="dots" width="34" height="34" patternUnits="userSpaceOnUse">
      <circle cx="2" cy="2" r="1.6" fill="#0B1220" fill-opacity=".08"/>
    </pattern>
    <filter id="shadow" x="-20%" y="-20%" width="140%" height="140%">
      <feDropShadow dx="0" dy="14" stdDeviation="16" flood-color="#0B1220" flood-opacity=".18"/>
    </filter>
  </defs>
  <rect width="1200" height="675" fill="url(#bg)"/>
  <rect width="1200" height="675" fill="url(#dots)"/>

  <g filter="url(#shadow)">
    <rect x="90" y="70" width="1020" height="535" rx="22" fill="#fff" stroke="#0B1220" stroke-opacity=".10"/>
  </g>
  <rect x="90" y="70" width="1020" height="62" rx="22" fill="#FBFCFF"/>
  <path d="M90 120H1110" stroke="#0B1220" stroke-opacity=".08"/>
  <text x="130" y="109" font-family="ui-sans-serif,system-ui,-apple-system,Segoe UI,Roboto,Helvetica,Arial" font-size="14" font-weight="780" fill="#0B1220" fill-opacity=".90">Canvas</text>
  <rect x="830" y="86" width="80" height="30" rx="15" fill="#0EA5E9" fill-opacity=".12" stroke="#0EA5E9" stroke-opacity=".24"/>
  <text x="855" y="106" font-family="ui-sans-serif,system-ui,-apple-system,Segoe UI,Roboto,Helvetica,Arial" font-size="11" font-weight="700" fill="#0B1220" fill-opacity=".82">Add</text>
  <rect x="920" y="86" width="78" height="30" rx="15" fill="#22C55E" fill-opacity=".12" stroke="#22C55E" stroke-opacity=".22"/>
  <text x="940" y="106" font-family="ui-sans-serif,system-ui,-apple-system,Segoe UI,Roboto,Helvetica,Arial" font-size="11" font-weight="700" fill="#0B1220" fill-opacity=".82">Tools</text>

  <rect x="120" y="155" width="740" height="420" rx="18" fill="#0B1220" fill-opacity=".03" stroke="#0B1220" stroke-opacity=".10"/>
  <text x="144" y="185" font-family="ui-sans-serif,system-ui,-apple-system,Segoe UI,Roboto,Helvetica,Arial" font-size="10" font-weight="800" fill="#0B1220" fill-opacity=".55" letter-spacing="2">STAGE</text>

  <path d="M250 352C320 352 330 300 400 300" stroke="#0EA5E9" stroke-opacity=".52" stroke-width="3" stroke-linecap="round"/>
  <path d="M400 300C486 300 500 386 590 386" stroke="#22C55E" stroke-opacity=".42" stroke-width="3" stroke-linecap="round"/>
  <path d="M590 386C678 386 690 330 780 330" stroke="#0EA5E9" stroke-opacity=".35" stroke-width="3" stroke-linecap="round"/>

  <rect x="210" y="318" width="80" height="68" rx="16" fill="#fff" stroke="#0B1220" stroke-opacity=".12"/>
  <text x="232" y="352" font-family="ui-sans-serif,system-ui,-apple-system,Segoe UI,Roboto,Helvetica,Arial" font-size="10" font-weight="800" fill="#0B1220" fill-opacity=".78">Root</text>

  <rect x="362" y="266" width="110" height="68" rx="16" fill="#fff" stroke="#0EA5E9" stroke-opacity=".28"/>
  <text x="384" y="300" font-family="ui-sans-serif,system-ui,-apple-system,Segoe UI,Roboto,Helvetica,Arial" font-size="10" font-weight="800" fill="#0B1220" fill-opacity=".80">Decision</text>
  <rect x="384" y="308" width="54" height="14" rx="7" fill="#0EA5E9" fill-opacity=".14"/>
  <text x="392" y="319" font-family="ui-sans-serif,system-ui,-apple-system,Segoe UI,Roboto,Helvetica,Arial" font-size="9" font-weight="800" fill="#0B1220" fill-opacity=".70">artifact</text>

  <rect x="548" y="352" width="126" height="68" rx="16" fill="#fff" stroke="#22C55E" stroke-opacity=".24"/>
  <text x="570" y="386" font-family="ui-sans-serif,system-ui,-apple-system,Segoe UI,Roboto,Helvetica,Arial" font-size="10" font-weight="800" fill="#0B1220" fill-opacity=".80">Evidence</text>

  <rect x="732" y="296" width="132" height="68" rx="16" fill="#fff" stroke="#0B1220" stroke-opacity=".12"/>
  <text x="754" y="330" font-family="ui-sans-serif,system-ui,-apple-system,Segoe UI,Roboto,Helvetica,Arial" font-size="10" font-weight="800" fill="#0B1220" fill-opacity=".80">Draft</text>

  <rect x="890" y="155" width="190" height="420" rx="18" fill="#fff" stroke="#0B1220" stroke-opacity=".10"/>
  <text x="914" y="185" font-family="ui-sans-serif,system-ui,-apple-system,Segoe UI,Roboto,Helvetica,Arial" font-size="10" font-weight="800" fill="#0B1220" fill-opacity=".55" letter-spacing="2">ARTIFACTS</text>
  <rect x="914" y="205" width="142" height="34" rx="14" fill="#0B1220" fill-opacity=".03" stroke="#0B1220" stroke-opacity=".06"/>
  <text x="932" y="227" font-family="ui-sans-serif,system-ui,-apple-system,Segoe UI,Roboto,Helvetica,Arial" font-size="11" font-weight="700" fill="#0B1220" fill-opacity=".74">Text</text>
  <rect x="914" y="247" width="142" height="34" rx="14" fill="#0B1220" fill-opacity=".03" stroke="#0B1220" stroke-opacity=".06"/>
  <text x="932" y="269" font-family="ui-sans-serif,system-ui,-apple-system,Segoe UI,Roboto,Helvetica,Arial" font-size="11" font-weight="700" fill="#0B1220" fill-opacity=".74">Code</text>
  <rect x="914" y="289" width="142" height="34" rx="14" fill="#0B1220" fill-opacity=".03" stroke="#0B1220" stroke-opacity=".06"/>
  <text x="932" y="311" font-family="ui-sans-serif,system-ui,-apple-system,Segoe UI,Roboto,Helvetica,Arial" font-size="11" font-weight="700" fill="#0B1220" fill-opacity=".74">Image</text>
  <rect x="914" y="331" width="142" height="34" rx="14" fill="#0B1220" fill-opacity=".03" stroke="#0B1220" stroke-opacity=".06"/>
  <text x="932" y="353" font-family="ui-sans-serif,system-ui,-apple-system,Segoe UI,Roboto,Helvetica,Arial" font-size="11" font-weight="700" fill="#0B1220" fill-opacity=".74">File</text>

  <text x="120" y="635" font-family="ui-sans-serif,system-ui,-apple-system,Segoe UI,Roboto,Helvetica,Arial" font-size="12" font-weight="650" fill="#0B1220" fill-opacity=".55">Artifacts are structured context you can pin and reuse.</text>
</svg>

